<svg xmlns="http://www.w3.org/2000/svg" width="23.272" height="23.272" viewBox="0 0 23.272 23.272">
  <g id="Paperclip" transform="matrix(0.921, 0.391, -0.391, 0.921, 6.935, 0)">
    <path id="Path_2776" data-name="Path 2776" d="M0,0H17.748V17.748H0Z" fill="none"/>
    <path id="Path_2777" data-name="Path 2777" d="M14.025,4.7v8.5a2.958,2.958,0,0,1-5.916,0V3.958a1.849,1.849,0,0,1,3.7,0v7.765a.74.74,0,0,1-1.479,0V4.7H9.219v7.025a1.849,1.849,0,0,0,3.7,0V3.958A2.958,2.958,0,0,0,7,3.958V13.2a4.067,4.067,0,0,0,8.135,0V4.7Z" transform="translate(-1.823 -0.26)" fill="#888684" stroke="#888684" stroke-width="0.5"/>
  </g>
</svg>