<svg xmlns="http://www.w3.org/2000/svg" width="24.667" height="18.5" viewBox="0 0 24.667 18.5">
  <path id="barcode-good" d="M0,82.5V64H.867V82.5Zm1.294-.013V64h.44V82.487Zm1.308,0V64h.427V82.487Zm2.161,0V64h.427V82.487Zm1.734,0V64H7.35V82.487Zm2.161,0V64h.427V82.487Zm.867,0V64h.427V82.487Zm.867,0V64h.427V82.487Zm1.721,0V64h.867V82.487Zm2.161,0V64h.867V82.487Zm1.734,0V64h.867V82.487Zm1.734,0V64h.867V82.487Zm1.294,0V64H19.9V82.487Zm2.175,0V64h1.294V82.487Zm1.721,0V64h.44V82.487h-.44Zm.867.013V64h.867V82.5Z" transform="translate(0 -64)" fill="#707070"/>
</svg>