<svg id="chart_outlined_black_24dp" xmlns="http://www.w3.org/2000/svg" width="17" height="17" viewBox="0 0 17 17">
  <path id="Path_2820" data-name="Path 2820" d="M0,0H17V17H0Z" fill="none"/>
  <path id="Path_2821" data-name="Path 2821" d="M7.058,12.79h-1.4V7.895h1.4Zm2.8,0H8.46V5.8h1.4Zm2.8,0h-1.4v-2.8h1.4Zm1.753,1.468H3.9V4.4H14.42ZM14.42,3H3.9A1.4,1.4,0,0,0,2.5,4.4v9.79a1.4,1.4,0,0,0,1.4,1.4H14.42a1.4,1.4,0,0,0,1.4-1.4V4.4A1.4,1.4,0,0,0,14.42,3Z" transform="translate(-0.661 -0.793)" fill="#807d7b"/>
</svg>