<svg id="Cog_small" data-name="Cog small" xmlns="http://www.w3.org/2000/svg" width="24.167" height="19.333" viewBox="0 0 24.167 19.333">
  <path id="Path_2842" data-name="Path 2842" d="M0,0H18.3V18.3H0Z" fill="none"/>
  <path id="Path_2843" data-name="Path 2843" d="M15.225,10.436a5.393,5.393,0,0,0,.046-.717A4.4,4.4,0,0,0,15.217,9l1.548-1.2a.374.374,0,0,0,.091-.465L15.393,4.8a.372.372,0,0,0-.45-.168l-1.822.732a5.386,5.386,0,0,0-1.235-.717l-.274-1.936a.369.369,0,0,0-.366-.313H8.317a.361.361,0,0,0-.358.313L7.685,4.649a5.5,5.5,0,0,0-1.235.717L4.627,4.634a.364.364,0,0,0-.45.168L2.721,7.333a.347.347,0,0,0,.091.465L4.361,9a4.242,4.242,0,0,0-.015,1.433L2.8,11.64a.374.374,0,0,0-.091.465L4.17,14.636a.372.372,0,0,0,.45.168l1.822-.732a5.386,5.386,0,0,0,1.235.717l.274,1.936a.375.375,0,0,0,.366.313h2.928a.356.356,0,0,0,.358-.313l.274-1.936a5.229,5.229,0,0,0,1.235-.717l1.822.732a.364.364,0,0,0,.45-.168l1.464-2.531a.353.353,0,0,0-.091-.465ZM9.781,12.464a2.745,2.745,0,1,1,2.745-2.745A2.753,2.753,0,0,1,9.781,12.464Z" transform="translate(-0.632 -0.57)" fill="#8b8a89"/>
  <g id="Edit" transform="translate(5.869 1.036)">
    <path id="Path_2840" data-name="Path 2840" d="M0,0H18.3V18.3H0Z" fill="none"/>
    <path id="Path_2841" data-name="Path 2841" d="M3,13.767v2.859H5.859l8.432-8.432L11.432,5.335ZM17.036,5.449,14.177,2.59,12.248,4.526l2.859,2.859Z" transform="translate(-0.713 -0.615)" fill="#706e6b" stroke="#fff" stroke-width="1"/>
  </g>
</svg>