<svg xmlns="http://www.w3.org/2000/svg" width="13.867" height="15.408" viewBox="0 0 13.867 15.408">
  <g id="cube_single_solid" data-name="cube single solid" transform="translate(-3 0)">
    <path id="Path_2833" data-name="Path 2833" d="M10.053,6.646l6.8-3.4L10.165.025a.256.256,0,0,0-.23,0L3.515,3.367l-.007.005h0Z" transform="translate(-0.377 0)" fill="#8b8a89"/>
    <path id="Path_2834" data-name="Path 2834" d="M30,17.585V25.9a.259.259,0,0,0,.1-.024l.012,0,6.677-3.338a.257.257,0,0,0,.142-.23V14.119Z" transform="translate(-20.067 -10.494)" fill="#8b8a89"/>
    <path id="Path_2835" data-name="Path 2835" d="M9.42,18.328,3,15.118v7.93a.257.257,0,0,0,.142.23L9.42,26.417Z" transform="translate(0 -11.236)" fill="#8b8a89"/>
  </g>
</svg>