<svg xmlns="http://www.w3.org/2000/svg" width="14.595" height="14.595" viewBox="0 0 14.595 14.595">
  <path id="edit_fontawesome" d="M14.217,4.124,12.9,5.438a.342.342,0,0,1-.485,0L9.254,2.274a.342.342,0,0,1,0-.485L10.568.475a1.371,1.371,0,0,1,1.936,0l1.713,1.713A1.366,1.366,0,0,1,14.217,4.124ZM8.125,2.918.639,10.4l-.6,3.464a.685.685,0,0,0,.792.792l3.464-.607,7.486-7.486a.342.342,0,0,0,0-.485L8.612,2.918a.346.346,0,0,0-.487,0ZM3.561,9.762a.4.4,0,0,1,0-.564l4.39-4.39a.4.4,0,1,1,.564.564l-4.39,4.39a.4.4,0,0,1-.564,0Zm-1.029,2.4H3.9v1.035l-1.839.322-.887-.887L1.5,10.791H2.532Z" transform="translate(-0.024 -0.075)" fill="#706e6b"/>
</svg>