<svg xmlns="http://www.w3.org/2000/svg" width="18.637" height="18.865" viewBox="0 0 18.637 18.865">
  <path id="Layer_51" data-name="Layer 51" d="M8.459,14.059a.666.666,0,0,1,0,.941l-3.78,3.78,2.111.422a.666.666,0,0,1-.133,1.318.631.631,0,0,1-.133-.013L3.2,19.84c-.015,0-.025-.013-.04-.016a.537.537,0,0,1-.067-.017c-.021-.008-.039-.024-.061-.035l-.019-.011a.6.6,0,0,1-.074-.042.666.666,0,0,1-.053-.045c-.008-.007-.018-.009-.025-.017a.573.573,0,0,1-.033-.049L2.819,19.6a.711.711,0,0,1-.047-.053c-.013-.021-.021-.045-.032-.067a.656.656,0,0,1-.037-.1c0-.011-.01-.021-.013-.032s-.01-.02-.012-.031h0l-.666-3.328a.666.666,0,1,1,1.3-.267l.422,2.108,3.78-3.78A.666.666,0,0,1,8.459,14.059Zm5.519-5.519a.666.666,0,0,0,.439-.164l4.41-3.86.2,2.258a.666.666,0,0,0,.666.606h.061a.666.666,0,0,0,.6-.723l-.305-3.38a.661.661,0,0,0-.2-.405.6.6,0,0,0-.053-.092.654.654,0,0,0-.62-.206l-2.835-.889a.666.666,0,1,0-.4,1.27l1.943.61L13.539,7.376a.666.666,0,0,0,.439,1.163ZM4.68,3.624,6.791,3.2a.666.666,0,1,0-.266-1.3L3.2,2.563a.576.576,0,0,0-.071.027.612.612,0,0,0-.1.043.59.59,0,0,0-.075.034c-.006,0-.01.011-.016.016s-.021.022-.032.032a.47.47,0,0,0-.049.032c-.014.014-.019.032-.031.047a.629.629,0,0,0-.051.053.576.576,0,0,0-.028.067.632.632,0,0,0-.048.114c-.007.021-.019.038-.024.059h0L2.01,6.413a.666.666,0,0,0,.522.782.631.631,0,0,0,.133.013.666.666,0,0,0,.652-.532l.422-2.108,3.78,3.78a.665.665,0,1,0,.941-.941ZM19.9,19.454a.622.622,0,0,0,.037-.094v-.008c0-.011.01-.02.012-.031h0l.666-3.328a.666.666,0,1,0-1.3-.261l-.441,2.2-4.459-3.9a.666.666,0,1,0-.877,1l4.309,3.77-2,.4a.666.666,0,0,0,.136,1.316.631.631,0,0,0,.133-.013l3.328-.666c.015,0,.025-.013.04-.016a.628.628,0,0,0,.079-.023.618.618,0,0,0,.067-.037h0a.6.6,0,0,0,.076-.043.641.641,0,0,0,.073-.067c.011-.011.025-.015.035-.026a.392.392,0,0,0,.021-.036c.011-.015.026-.027.037-.043A.636.636,0,0,0,19.9,19.454Z" transform="translate(-1.997 -1.654)"/>
</svg>