<svg id="Export_icon" data-name="Export icon" xmlns="http://www.w3.org/2000/svg" width="16" height="14.889" viewBox="0 0 16 14.889">
  <g id="Import" transform="translate(0 0)">
    <path id="Path_2367" data-name="Path 2367" d="M8.263,2h7.579a1.265,1.265,0,0,1,1.263,1.263V5.79a.421.421,0,1,1-.842,0V3.263a.421.421,0,0,0-.421-.421H9.472l3.235,1.387a1.816,1.816,0,0,1,1.029,1.56v8h2.105a.421.421,0,0,0,.421-.421V10.842a.421.421,0,1,1,.842,0v2.526a1.265,1.265,0,0,1-1.263,1.263H13.737v1.263a.985.985,0,0,1-.417.849.9.9,0,0,1-.5.145,1.145,1.145,0,0,1-.448-.1L8.029,14.93A1.816,1.816,0,0,1,7,13.369V3.263A1.265,1.265,0,0,1,8.263,2ZM7.842,13.369a.971.971,0,0,0,.519.787l4.347,1.863a.206.206,0,0,0,.149.023c.015-.009.038-.058.038-.146V5.79A.971.971,0,0,0,12.376,5L7.885,3.078a.413.413,0,0,0-.043.185V13.369Z" transform="translate(-7 -2)" fill="#706e6b"/>
    <path id="Path_2368" data-name="Path 2368" d="M7.036,8.649,4.509,6.123a.421.421,0,0,0-.6.6L5.721,8.525H.421a.421.421,0,1,0,0,.842h5.3L3.914,11.175a.421.421,0,0,0,.6.6L7.036,9.244a.421.421,0,0,0,0-.6Z" transform="translate(8.84 -2.632)" fill="#706e6b"/>
  </g>
  <g id="Import-2" data-name="Import" transform="translate(0 0)">
    <path id="Path_2367-2" data-name="Path 2367" d="M8.263,2h7.579a1.265,1.265,0,0,1,1.263,1.263V5.79a.421.421,0,1,1-.842,0V3.263a.421.421,0,0,0-.421-.421H9.472l3.235,1.387a1.816,1.816,0,0,1,1.029,1.56v8h2.105a.421.421,0,0,0,.421-.421V10.842a.421.421,0,1,1,.842,0v2.526a1.265,1.265,0,0,1-1.263,1.263H13.737v1.263a.985.985,0,0,1-.417.849.9.9,0,0,1-.5.145,1.145,1.145,0,0,1-.448-.1L8.029,14.93A1.816,1.816,0,0,1,7,13.369V3.263A1.265,1.265,0,0,1,8.263,2ZM7.842,13.369a.971.971,0,0,0,.519.787l4.347,1.863a.206.206,0,0,0,.149.023c.015-.009.038-.058.038-.146V5.79A.971.971,0,0,0,12.376,5L7.885,3.078a.413.413,0,0,0-.043.185V13.369Z" transform="translate(-7 -2)" fill="#706e6b"/>
    <path id="Path_2368-2" data-name="Path 2368" d="M7.036,8.649,4.509,6.123a.421.421,0,0,0-.6.6L5.721,8.525H.421a.421.421,0,1,0,0,.842h5.3L3.914,11.175a.421.421,0,0,0,.6.6L7.036,9.244a.421.421,0,0,0,0-.6Z" transform="translate(8.84 -2.632)" fill="#706e6b"/>
  </g>
</svg>