<svg id="Faq" xmlns="http://www.w3.org/2000/svg" width="47" height="47" viewBox="0 0 47 47">
  <path id="Path_2658" data-name="Path 2658" d="M47,31.808a15.227,15.227,0,0,0-11.125-14.64,17.946,17.946,0,1,0-33.386,9.9L.066,35.826,8.824,33.4a17.88,17.88,0,0,0,8.343,2.47,15.2,15.2,0,0,0,22.37,9.014l7.4,2.046-2.046-7.4A15.138,15.138,0,0,0,47,31.808ZM9.259,30.426l-5.243,1.45,1.45-5.243-.331-.517a15.187,15.187,0,1,1,4.64,4.64ZM42.984,42.984l-3.891-1.076-.52.338a12.443,12.443,0,0,1-18.559-6.473A17.98,17.98,0,0,0,35.773,20.015a12.444,12.444,0,0,1,6.473,18.559l-.338.52Zm0,0" fill="#babdc1"/>
  <path id="Path_2659" data-name="Path 2659" d="M180.5,271h2.754v2.754H180.5Zm0,0" transform="translate(-163.931 -246.123)" fill="#babdc1"/>
  <path id="Path_2660" data-name="Path 2660" d="M143.762,95.508a2.726,2.726,0,0,1-.9,2.033l-3.234,2.96v3.36h2.754v-2.148l2.34-2.141a5.508,5.508,0,1,0-9.225-4.065h2.754a2.754,2.754,0,0,1,5.508,0Zm0,0" transform="translate(-123.061 -81.738)" fill="#babdc1"/>
</svg>

