<svg xmlns="http://www.w3.org/2000/svg" width="20.018" height="20.008" viewBox="0 0 20.018 20.008">
  <path id="Path_2818" data-name="Path 2818" d="M11.669,11.742l6.451,5.833V28.081l3.592-2.134V17.575l6.451-5.833Zm4.609,6.487-5.754-5.135a1.8,1.8,0,0,1-.149-2.546h0a1.878,1.878,0,0,1,1.366-.6H28.1a1.821,1.821,0,0,1,1.835,1.814,1.785,1.785,0,0,1-.612,1.351L23.54,18.251v7.682a1.814,1.814,0,0,1-.868,1.543L19.08,29.688a1.849,1.849,0,0,1-2.525-.59,1.814,1.814,0,0,1-.277-.953Z" transform="translate(-9.917 -9.95)"/>
</svg>