<svg xmlns="http://www.w3.org/2000/svg" width="13.832" height="14.144" viewBox="0 0 13.832 14.144">
  <path id="filter" d="M13.233,0H1.069A.571.571,0,0,0,.56.31.579.579,0,0,0,.6.913L5.061,7.191l0,.006a1.273,1.273,0,0,1,.25.756v5.118a.569.569,0,0,0,.569.573.586.586,0,0,0,.224-.045l2.5-.955a.542.542,0,0,0,.373-.535V7.953a1.273,1.273,0,0,1,.25-.756l0-.006L13.7.913a.579.579,0,0,0,.045-.6A.571.571,0,0,0,13.233,0ZM8.678,6.787a1.972,1.972,0,0,0-.384,1.166v4.072L6.008,12.9V7.953a1.971,1.971,0,0,0-.384-1.166L1.3.692H13Zm0,0" transform="translate(-0.235 0.25)" fill="#706e6b" stroke="#706e6b" stroke-width="0.5"/>
</svg>