<svg xmlns="http://www.w3.org/2000/svg" width="13.5" height="13.5" viewBox="0 0 13.5 13.5">
  <g id="Fullscreen" transform="translate(0 -2.002)">
    <path id="Path_2550" data-name="Path 2550" d="M4.668,137.91l-3.584,3.584v-2.3a.54.54,0,1,0-1.08,0V142.8a.54.54,0,0,0,.54.54h3.6a.54.54,0,1,0,0-1.08h-2.3l3.584-3.584a.54.54,0,1,0-.763-.763Z" transform="translate(-0.005 -127.835)" fill="#3a3a3a"/>
    <path id="Path_2551" data-name="Path 2551" d="M144.186,0h-3.605a.54.54,0,0,0,0,1.08h2.3l-3.476,3.477a.54.54,0,0,0,.764.763l3.476-3.477v2.3a.54.54,0,1,0,1.08,0V.542A.54.54,0,0,0,144.186,0Z" transform="translate(-131.226 2)" fill="#3a3a3a"/>
  </g>
</svg>