<svg xmlns="http://www.w3.org/2000/svg" width="39.999" height="40" viewBox="0 0 39.999 40">
  <g id="Rocket" transform="translate(0 0)">
    <path id="Path_2668" data-name="Path 2668" d="M39.952,2.986A3.109,3.109,0,0,0,37.013.047a30.877,30.877,0,0,0-15.479,3.1A30.388,30.388,0,0,0,12.661,10.5l-.094.115-5.858.452a3.092,3.092,0,0,0-2.356,1.386l-4,6.045a2.142,2.142,0,0,0,1.459,3.3l4.935.764c-.017.1-.035.192-.051.288a3.107,3.107,0,0,0,.871,2.7l6.874,6.874a3.115,3.115,0,0,0,2.2.913,3.063,3.063,0,0,0,.5-.042l.288-.051.764,4.935a2.14,2.14,0,0,0,3.3,1.459l6.045-4a3.092,3.092,0,0,0,1.386-2.356l.452-5.858.115-.094a30.385,30.385,0,0,0,7.358-8.874,30.879,30.879,0,0,0,3.1-15.479ZM26.25,33.692l-5.782,3.823-.745-4.81a26.252,26.252,0,0,0,7.164-3.411l-.295,3.816a.763.763,0,0,1-.342.582ZM16.1,30.772,9.228,23.9a.76.76,0,0,1-.217-.659,20.16,20.16,0,0,1,.915-3.481L20.24,30.071a20.244,20.244,0,0,1-3.479.917.76.76,0,0,1-.659-.217ZM6.889,13.407l3.816-.295a26.25,26.25,0,0,0-3.411,7.164l-4.81-.745L6.308,13.75A.763.763,0,0,1,6.889,13.407ZM27.995,25.539a26.868,26.868,0,0,1-5.425,3.548L10.912,17.429A27.333,27.333,0,0,1,14.461,12a27.967,27.967,0,0,1,8.151-6.778,28.505,28.505,0,0,1,14.274-2.84.769.769,0,0,1,.727.727,28.5,28.5,0,0,1-2.84,14.274,27.967,27.967,0,0,1-6.778,8.151Z" transform="translate(0 0)" fill="#babdc1"/>
    <path id="Path_2669" data-name="Path 2669" d="M281.582,98.031a5.855,5.855,0,1,0-4.143-1.713A5.842,5.842,0,0,0,281.582,98.031ZM279.1,89.689a3.515,3.515,0,1,1-1.03,2.486A3.5,3.5,0,0,1,279.1,89.689Z" transform="translate(-254.183 -79.575)" fill="#babdc1"/>
    <path id="Path_2670" data-name="Path 2670" d="M1.473,349.134a1.168,1.168,0,0,0,.829-.343l3.826-3.826a1.172,1.172,0,1,0-1.657-1.657L.645,347.134a1.172,1.172,0,0,0,.829,2Z" transform="translate(-0.278 -316.171)" fill="#babdc1"/>
    <path id="Path_2671" data-name="Path 2671" d="M9.357,388.189a1.172,1.172,0,0,0-1.657,0L.344,395.545A1.172,1.172,0,1,0,2,397.2l7.356-7.356A1.172,1.172,0,0,0,9.357,388.189Z" transform="translate(-0.001 -357.545)" fill="#babdc1"/>
    <path id="Path_2672" data-name="Path 2672" d="M94.232,433.07,90.406,436.9a1.172,1.172,0,1,0,1.657,1.657l3.826-3.826a1.172,1.172,0,0,0-1.657-1.657Z" transform="translate(-83.027 -398.92)" fill="#babdc1"/>
  </g>
</svg>

