<svg id="Heart_outline" data-name="Heart outline" xmlns="http://www.w3.org/2000/svg" width="22.333" height="22" viewBox="0 0 22.333 22">
  <defs>
    <style>
      .cls-1 {
        fill: none;
      }

      .cls-2 {
        fill: #fff;
      }
    </style>
  </defs>
  <path id="Path_2425" data-name="Path 2425" class="cls-1" d="M0,0H22.333V22H0Z"/>
  <path id="Path_2426" data-name="Path 2426" class="cls-2" d="M15.292,3a5.555,5.555,0,0,0-4.125,1.862A5.555,5.555,0,0,0,7.042,3,4.924,4.924,0,0,0,2,7.9c0,3.368,3.117,6.112,7.838,10.282l1.329,1.167L12.5,18.174c4.721-4.161,7.838-6.905,7.838-10.273A4.924,4.924,0,0,0,15.292,3ZM11.258,16.855l-.092.089-.092-.089c-4.363-3.84-7.242-6.38-7.242-8.955A3.09,3.09,0,0,1,7.042,4.782a3.587,3.587,0,0,1,3.272,2.1h1.714a3.564,3.564,0,0,1,3.263-2.1A3.09,3.09,0,0,1,18.5,7.9C18.5,10.476,15.622,13.015,11.258,16.855Z"/>
</svg>
