<svg xmlns="http://www.w3.org/2000/svg" width="16.024" height="14.911" viewBox="0 0 16.024 14.911">
  <g id="Import_icon" data-name="Import icon" transform="translate(-162.346 -7.636)">
    <g id="Import" transform="translate(162.346 7.636)">
      <path id="Path_2367" data-name="Path 2367" d="M15.855,2H8.265A1.267,1.267,0,0,0,7,3.265V5.8a.422.422,0,0,0,.843,0V3.265a.422.422,0,0,1,.422-.422h6.379L11.4,4.232A1.819,1.819,0,0,0,10.373,5.8v8.012H8.265a.422.422,0,0,1-.422-.422v-2.53a.422.422,0,0,0-.843,0v2.53a1.267,1.267,0,0,0,1.265,1.265h2.108v1.265a.986.986,0,0,0,.417.85.9.9,0,0,0,.5.145,1.147,1.147,0,0,0,.449-.1l4.353-1.866a1.819,1.819,0,0,0,1.031-1.564V3.265A1.267,1.267,0,0,0,15.855,2Zm.422,11.386a.973.973,0,0,1-.52.788L11.4,16.039a.207.207,0,0,1-.149.023c-.015-.009-.038-.058-.038-.146V5.8a.973.973,0,0,1,.52-.788l4.5-1.928a.414.414,0,0,1,.043.186Z" transform="translate(-1.096 -2)" fill="#706e6b"/>
      <path id="Path_2368" data-name="Path 2368" d="M7.046,8.653l-2.53-2.53a.422.422,0,0,0-.6.6l1.81,1.81H.422a.422.422,0,0,0,0,.843H5.729l-1.81,1.81a.422.422,0,0,0,.6.6l2.53-2.53a.422.422,0,0,0,0-.6Z" transform="translate(0 -2.626)" fill="#706e6b"/>
    </g>
    <g id="Import-2" data-name="Import" transform="translate(162.346 7.636)">
      <path id="Path_2367-2" data-name="Path 2367" d="M15.855,2H8.265A1.267,1.267,0,0,0,7,3.265V5.8a.422.422,0,0,0,.843,0V3.265a.422.422,0,0,1,.422-.422h6.379L11.4,4.232A1.819,1.819,0,0,0,10.373,5.8v8.012H8.265a.422.422,0,0,1-.422-.422v-2.53a.422.422,0,0,0-.843,0v2.53a1.267,1.267,0,0,0,1.265,1.265h2.108v1.265a.986.986,0,0,0,.417.85.9.9,0,0,0,.5.145,1.147,1.147,0,0,0,.449-.1l4.353-1.866a1.819,1.819,0,0,0,1.031-1.564V3.265A1.267,1.267,0,0,0,15.855,2Zm.422,11.386a.973.973,0,0,1-.52.788L11.4,16.039a.207.207,0,0,1-.149.023c-.015-.009-.038-.058-.038-.146V5.8a.973.973,0,0,1,.52-.788l4.5-1.928a.414.414,0,0,1,.043.186Z" transform="translate(-1.096 -2)" fill="#706e6b"/>
      <path id="Path_2368-2" data-name="Path 2368" d="M7.046,8.653l-2.53-2.53a.422.422,0,0,0-.6.6l1.81,1.81H.422a.422.422,0,0,0,0,.843H5.729l-1.81,1.81a.422.422,0,0,0,.6.6l2.53-2.53a.422.422,0,0,0,0-.6Z" transform="translate(0 -2.626)" fill="#706e6b"/>
    </g>
  </g>
</svg>