<svg xmlns="http://www.w3.org/2000/svg" width="22" height="29" viewBox="0 0 22 29"><defs><style>.a{fill:#79a0d6;}</style></defs><path class="a" d="M16.5,14.5H5.5v3.625h11Zm5.1-8.553L15.99.4a1.382,1.382,0,0,0-.974-.4h-.349V7.25H22V6.9A1.347,1.347,0,0,0,21.6,5.947ZM12.833,7.7V0H1.375A1.364,1.364,0,0,0,0,1.359V27.641A1.364,1.364,0,0,0,1.375,29h19.25A1.364,1.364,0,0,0,22,27.641V9.063H14.208A1.371,1.371,0,0,1,12.833,7.7ZM3.667,4.078a.456.456,0,0,1,.458-.453H8.708a.456.456,0,0,1,.458.453v.906a.456.456,0,0,1-.458.453H4.125a.456.456,0,0,1-.458-.453Zm0,3.625a.456.456,0,0,1,.458-.453H8.708a.456.456,0,0,1,.458.453v.906a.456.456,0,0,1-.458.453H4.125a.456.456,0,0,1-.458-.453ZM18.333,24.922a.456.456,0,0,1-.458.453H13.292a.456.456,0,0,1-.458-.453v-.906a.456.456,0,0,1,.458-.453h4.583a.456.456,0,0,1,.458.453Zm0-11.328v5.438a.911.911,0,0,1-.917.906H4.583a.911.911,0,0,1-.917-.906V13.594a.911.911,0,0,1,.917-.906H17.417A.911.911,0,0,1,18.333,13.594Z"/></svg>