<svg id="list_with_page" data-name="list with page" xmlns="http://www.w3.org/2000/svg" width="21" height="21" viewBox="0 0 21 21">
  <path id="Path_2808" data-name="Path 2808" d="M0,0H21V21H0Z" fill="none"/>
  <path id="Path_2809" data-name="Path 2809" d="M17,4.75V17H4.75V4.75H17M17.962,3H3.787A.784.784,0,0,0,3,3.787V17.962a.846.846,0,0,0,.787.787H17.962a.928.928,0,0,0,.787-.787V3.787A.846.846,0,0,0,17.962,3ZM10,6.5h5.25V8.25H10ZM10,10h5.25v1.75H10Zm0,3.5h5.25v1.75H10Zm-3.5-7H8.25V8.25H6.5Zm0,3.5H8.25v1.75H6.5Zm0,3.5H8.25v1.75H6.5Z" transform="translate(-0.375 -0.375)" fill="#706e6b"/>
</svg>