<svg id="lock-24px" xmlns="http://www.w3.org/2000/svg" width="17.5" height="17.5" viewBox="0 0 17.5 17.5">
  <g id="Group_150" data-name="Group 150">
    <path id="Path_2651" data-name="Path 2651" d="M0,0H17.5V17.5H0Z" fill="none"/>
    <path id="Path_2652" data-name="Path 2652" d="M0,0H17.5V17.5H0Z" fill="none" opacity="0.87"/>
  </g>
  <path id="Path_2653" data-name="Path 2653" d="M14.208,6.1h-.729V4.646a3.646,3.646,0,1,0-7.292,0V6.1H5.458A1.463,1.463,0,0,0,4,7.563v7.292a1.463,1.463,0,0,0,1.458,1.458h8.75a1.463,1.463,0,0,0,1.458-1.458V7.563A1.463,1.463,0,0,0,14.208,6.1ZM7.646,4.646a2.187,2.187,0,1,1,4.375,0V6.1H7.646Zm6.562,10.208H5.458V7.563h8.75ZM9.833,12.667a1.458,1.458,0,1,0-1.458-1.458A1.463,1.463,0,0,0,9.833,12.667Z" transform="translate(-1.083 -0.271)" fill="#fff"/>
</svg>