<svg xmlns="http://www.w3.org/2000/svg" width="15.333" height="15.333" viewBox="0 0 15.333 15.333">
  <g id="Logout_icon" transform="translate(-2 -2)">
    <g id="exit2" transform="translate(2 2)">
      <path id="Path_2627" data-name="Path 2627" d="M11.533,8.133A1.538,1.538,0,0,0,13.067,6.6V3.533a1.533,1.533,0,0,0-3.067,0V6.6A1.538,1.538,0,0,0,11.533,8.133Z" transform="translate(-3.867 -2)" fill="#706e6b"/>
      <path id="Path_2628" data-name="Path 2628" d="M15.11,4.807h0a1.047,1.047,0,0,0-.843-.307,1.179,1.179,0,0,0-1.15,1.15,1.608,1.608,0,0,0,.307.843h0a5.21,5.21,0,0,1,1.533,3.757,5.367,5.367,0,1,1-10.733,0,5.148,5.148,0,0,1,1.61-3.757h0a1.231,1.231,0,0,0,.383-.843A1.179,1.179,0,0,0,5.067,4.5a1.608,1.608,0,0,0-.843.307h0a7.667,7.667,0,1,0,10.886,0Z" transform="translate(-2 -2.583)" fill="#706e6b"/>
    </g>
  </g>
</svg>