<svg id="Megaphone_outline" xmlns="http://www.w3.org/2000/svg" width="37" height="37" viewBox="0 0 37 37">
  <g id="Group_152" data-name="Group 152">
    <rect id="Rectangle_2119" data-name="Rectangle 2119" width="37" height="37" fill="none"/>
  </g>
  <path id="Path_2663" data-name="Path 2663" d="M18,11v3.083h6.167V11Z" transform="translate(9.75 5.958)" fill="#babdc1"/>
  <path id="Path_2664" data-name="Path 2664" d="M16,18.482c1.48,1.095,3.407,2.544,4.933,3.685.617-.817,1.233-1.65,1.85-2.467-1.526-1.141-3.453-2.59-4.933-3.7C17.233,16.833,16.617,17.665,16,18.482Z" transform="translate(8.667 8.667)" fill="#babdc1"/>
  <path id="Path_2665" data-name="Path 2665" d="M22.783,6.467C22.167,5.65,21.55,4.817,20.933,4,19.407,5.141,17.48,6.59,16,7.7c.617.817,1.233,1.65,1.85,2.467C19.33,9.057,21.257,7.623,22.783,6.467Z" transform="translate(8.667 2.167)" fill="#babdc1"/>
  <path id="Path_2666" data-name="Path 2666" d="M5.083,10.625A3.092,3.092,0,0,0,2,13.708v3.083a3.092,3.092,0,0,0,3.083,3.083H6.625v6.167H9.708V19.875H11.25L18.958,24.5V6L11.25,10.625Zm7.755,2.636,3.037-1.819v7.616l-3.037-1.819-.74-.447H5.083V13.708H12.1Z" transform="translate(1.083 3.25)" fill="#babdc1"/>
  <path id="Path_2667" data-name="Path 2667" d="M16.313,13.815A6.907,6.907,0,0,0,14,8.65V18.964A6.848,6.848,0,0,0,16.313,13.815Z" transform="translate(7.583 4.685)" fill="#babdc1"/>
</svg>