<svg xmlns="http://www.w3.org/2000/svg" width="15.501" height="15.501" viewBox="0 0 15.501 15.501">
  <g id="night-mode" transform="translate(0 0)">
    <path id="Path_2557" data-name="Path 2557" d="M7.75,15.5A7.849,7.849,0,0,0,15.5,8.8a.454.454,0,0,0-.828-.313,5.615,5.615,0,0,1-4.647,2.441A5.456,5.456,0,0,1,4.571,5.48,5.615,5.615,0,0,1,7.012.833.454.454,0,0,0,6.7,0,7.85,7.85,0,0,0,0,7.751,7.767,7.767,0,0,0,7.75,15.5ZM5.093,1.383a6.625,6.625,0,0,0-1.43,4.1,6.365,6.365,0,0,0,6.358,6.358,6.625,6.625,0,0,0,4.1-1.43A6.94,6.94,0,0,1,7.75,14.593,6.85,6.85,0,0,1,.908,7.751,6.94,6.94,0,0,1,5.093,1.383Z" transform="translate(0 0)"/>
  </g>
</svg>