<svg id="Phone_filled" xmlns="http://www.w3.org/2000/svg" width="22" height="22" viewBox="0 0 22 22">
  <path id="Path_2643" data-name="Path 2643" d="M0,0H22V22H0Z" fill="none"/>
  <path id="Path_2644" data-name="Path 2644" d="M18.592,14.348a10.489,10.489,0,0,1-3.236-.513.9.9,0,0,0-.926.22l-1.439,1.806A13.918,13.918,0,0,1,6.676,9.6L8.463,8.078a.936.936,0,0,0,.22-.935A10.223,10.223,0,0,1,8.17,3.907.916.916,0,0,0,7.262,3H4.091C3.6,3,3,3.22,3,3.907A15.723,15.723,0,0,0,18.592,19.5a.962.962,0,0,0,.908-1.082V15.256a.916.916,0,0,0-.908-.907Z" transform="translate(-0.25 -0.25)" fill="#a4a2a2"/>
</svg>