<svg id="print-24px" xmlns="http://www.w3.org/2000/svg" width="24" height="24" viewBox="0 0 24 24">
  <path id="Path_2341" data-name="Path 2341" d="M0,0H24V24H0Z" fill="none"/>
  <path id="Path_2342" data-name="Path 2342" d="M18.236,7.626h-.955V3H5.82V7.626H4.865A2.818,2.818,0,0,0,2,10.4v5.551H5.82v3.7H17.281v-3.7H21.1V10.4A2.818,2.818,0,0,0,18.236,7.626ZM7.73,4.85h7.641V7.626H7.73Zm7.641,11.1V17.8H7.73V14.1h7.641Zm1.91-1.85v-1.85H5.82V14.1H3.91V10.4a.943.943,0,0,1,.955-.925H18.236a.943.943,0,0,1,.955.925v3.7Z" transform="translate(0.449 0.674)" fill="#706e6b"/>
  <circle id="Ellipse_8" data-name="Ellipse 8" cx="1.225" cy="1.225" r="1.225" transform="translate(16.653 10.286)" fill="#706e6b"/>
</svg>
