<svg id="print-24px" xmlns="http://www.w3.org/2000/svg" width="18.591" height="18.591" viewBox="0 0 18.591 18.591">
  <path id="Path_2341" data-name="Path 2341" d="M0,0H18.591V18.591H0Z" fill="none"/>
  <path id="Path_2342" data-name="Path 2342" d="M14.642,6.615H13.9V3H4.975V6.615H4.231A2.2,2.2,0,0,0,2,8.784v4.338H4.975v2.892H13.9V13.122h2.975V8.784A2.2,2.2,0,0,0,14.642,6.615ZM6.462,4.446h5.949V6.615H6.462Zm5.949,8.676v1.446H6.462V11.676h5.949ZM13.9,11.676V10.23H4.975v1.446H3.487V8.784a.736.736,0,0,1,.744-.723H14.642a.736.736,0,0,1,.744.723v2.892Z" transform="translate(-0.141 -0.211)" fill="#706e6b"/>
  <circle id="Ellipse_8" data-name="Ellipse 8" cx="0.93" cy="0.93" r="0.93" transform="translate(12.929 7.986)" fill="#706e6b"/>
</svg>