<svg xmlns="http://www.w3.org/2000/svg" width="18.735" height="21.102" viewBox="0 0 18.735 21.102">
  <g id="Quick_add" data-name="Quick add" transform="translate(-0.27 -1.084)">
    <g id="Page" transform="translate(0.27 1.084)">
      <path id="Path_2680" data-name="Path 2680" d="M0,0H16.425V18.1H0Z" transform="translate(0 0)" fill="none"/>
      <g id="Page-2" data-name="Page" transform="translate(1.825 0.761)" fill="#fff">
        <path d="M 10.95004749298096 15.67507648468018 L 1.825007915496826 15.67507648468018 C 1.232247948646545 15.67507648468018 0.7499979138374329 15.19282722473145 0.7499979138374329 14.60006713867188 L 0.7499979138374329 1.82500684261322 C 0.7499979138374329 1.23224675655365 1.232247948646545 0.7499968409538269 1.825007915496826 0.7499968409538269 L 6.572467803955078 0.7499968409538269 L 6.572467803955078 4.562516689300537 L 6.572467803955078 4.899436950683594 L 6.572467803955078 5.649436950683594 L 7.322467803955078 5.649436950683594 L 12.02505779266357 5.649436950683594 L 12.02505779266357 14.60006713867188 C 12.02505779266357 15.19282722473145 11.54280757904053 15.67507648468018 10.95004749298096 15.67507648468018 Z" stroke="none"/>
        <path d="M 1.825008392333984 1.499997138977051 C 1.645797729492188 1.499997138977051 1.499998092651367 1.645796775817871 1.499998092651367 1.825006484985352 L 1.499998092651367 14.60006713867188 C 1.499998092651367 14.77927684783936 1.645797729492188 14.92507648468018 1.825008392333984 14.92507648468018 L 10.95004844665527 14.92507648468018 C 11.12925815582275 14.92507648468018 11.27505779266357 14.77927684783936 11.27505779266357 14.60006713867188 L 11.27505779266357 6.399436950683594 L 5.822467803955078 6.399436950683594 L 5.822467803955078 1.499997138977051 L 1.825008392333984 1.499997138977051 M 1.825008392333984 -3.814697265625e-06 L 7.322467803955078 -3.814697265625e-06 L 7.322467803955078 4.562517166137695 C 7.322467803955078 4.562517166137695 7.322467803955078 4.822806358337402 7.322467803955078 4.899436950683594 L 12.77505779266357 4.899436950683594 L 12.77505779266357 14.60006713867188 C 12.77505779266357 15.60798645019531 11.95796775817871 16.42507743835449 10.95004844665527 16.42507743835449 L 1.825008392333984 16.42507743835449 C 0.8170881271362305 16.42507743835449 -1.9073486328125e-06 15.60798645019531 -1.9073486328125e-06 14.60006713867188 L -1.9073486328125e-06 1.825006484985352 C -1.9073486328125e-06 0.8170871734619141 0.8170881271362305 -3.814697265625e-06 1.825008392333984 -3.814697265625e-06 Z" stroke="none" fill="#536c78"/>
      </g>
      <g id="Triangle" transform="translate(11.645 8.424) rotate(-133)" fill="#536c78">
        <path d="M 1.187503457069397 3.416199684143066 L 3.641970634460449 0.5805291533470154 L 6.202953338623047 2.968680858612061 L 1.187503457069397 3.416199684143066 Z" stroke="none"/>
        <path d="M 3.680449724197388 1.300068616867065 L 2.375010013580322 2.80825662612915 L 5.04254150390625 2.570237874984741 L 3.680449724197388 1.300068616867065 M 3.603496074676514 -0.1390161514282227 L 7.363376140594482 3.367124080657959 L -3.814697265625e-06 4.024144172668457 L 3.603496074676514 -0.1390161514282227 Z" stroke="none" fill="#536c78"/>
      </g>
    </g>
    <g id="Plus" transform="translate(8.695 11.824)">
      <path id="Path_2341" data-name="Path 2341" d="M0,0H10.31V10.362H0Z" transform="translate(0 0)" fill="#fff"/>
      <line id="PlusV" y2="6.662" transform="translate(5.606 2.328)" fill="none" stroke="#536c78" stroke-linecap="round" stroke-width="2"/>
      <line id="PlusH" y2="6.662" transform="translate(8.941 5.664) rotate(90)" fill="none" stroke="#536c78" stroke-linecap="round" stroke-width="2"/>
    </g>
  </g>
</svg>
