<svg xmlns="http://www.w3.org/2000/svg" width="16.695" height="12.424" viewBox="0 0 16.695 12.424">
  <g id="ClearFilter_icon" data-name="ClearFilter icon" transform="translate(-203.954 -7.75)">
    <path id="filter" d="M12.267,0H1.025A.531.531,0,0,0,.555.277.5.5,0,0,0,.6.816L4.715,6.427l0,.006a1.113,1.113,0,0,1,.231.675v4.575a.5.5,0,0,0,.153.362.535.535,0,0,0,.373.15.558.558,0,0,0,.207-.04L8,11.3a.486.486,0,0,0,.345-.478V7.108a1.114,1.114,0,0,1,.231-.675l0-.006L12.7.816a.5.5,0,0,0,.042-.539A.531.531,0,0,0,12.267,0ZM8.058,6.066A1.724,1.724,0,0,0,7.7,7.108v3.639l-2.112.779V7.108a1.723,1.723,0,0,0-.355-1.042l-4-5.447h10.82Zm0,0" transform="translate(203.458 7.75)" fill="#706e6b"/>
    <path id="filter-2" data-name="filter" d="M12.267,0H1.025A.531.531,0,0,0,.555.277.5.5,0,0,0,.6.816L4.715,6.427l0,.006a1.113,1.113,0,0,1,.231.675v4.575a.5.5,0,0,0,.153.362.535.535,0,0,0,.373.15.558.558,0,0,0,.207-.04L8,11.3a.486.486,0,0,0,.345-.478V7.108a1.114,1.114,0,0,1,.231-.675l0-.006L12.7.816a.5.5,0,0,0,.042-.539A.531.531,0,0,0,12.267,0ZM8.058,6.066A1.724,1.724,0,0,0,7.7,7.108v3.639l-2.112.779V7.108a1.723,1.723,0,0,0-.355-1.042l-4-5.447h10.82Zm0,0" transform="translate(203.458 7.75)" fill="#706e6b"/>
    <g id="cancel_black_24dp" transform="translate(209.63 9.156)">
      <path id="Path_2757" data-name="Path 2757" d="M0,0H11.018V11.018H0Z" fill="none"/>
      <path id="Path_2758" data-name="Path 2758" d="M6.591,2a4.591,4.591,0,1,0,4.591,4.591A4.587,4.587,0,0,0,6.591,2Zm2.3,6.239-.647.647L6.591,7.238,4.943,8.886,4.3,8.239,5.944,6.591,4.3,4.943,4.943,4.3,6.591,5.944,8.239,4.3l.647.647L7.238,6.591Z" transform="translate(-1.082 -1.082)" fill="#706e6b"/>
    </g>
  </g>
</svg>