<svg id="Floppy" xmlns="http://www.w3.org/2000/svg" width="18" height="18" viewBox="0 0 18 18">
  <path id="Path_2817" data-name="Path 2817" d="M0,0H18V18H0Z" fill="none"/>
  <path id="Path_2818" data-name="Path 2818" d="M13.567,3H4.51A1.509,1.509,0,0,0,3,4.51V15.077a1.509,1.509,0,0,0,1.51,1.51H15.077a1.514,1.514,0,0,0,1.51-1.51V6.019Zm1.51,12.077H4.51V4.51h8.431l2.136,2.136ZM9.793,9.793a2.264,2.264,0,1,0,2.264,2.264A2.261,2.261,0,0,0,9.793,9.793ZM5.264,5.264h6.793V8.284H5.264Z" transform="translate(-0.793 -0.793)" fill="#706e6b"/>
</svg>