<svg xmlns="http://www.w3.org/2000/svg" width="16" height="15" viewBox="0 0 16 15">
  <g id="Kanban_icon" data-name="Kanban icon" transform="translate(30.213 -4)">
    <g id="Rectangle_2113" data-name="Rectangle 2113" transform="translate(-30.213 4)" fill="#fff" stroke="#707070" stroke-width="1">
      <rect width="6" height="15" stroke="none"/>
      <rect x="0.5" y="0.5" width="5" height="14" fill="none"/>
    </g>
    <g id="Rectangle_2115" data-name="Rectangle 2115" transform="translate(-25.213 4)" fill="#fff" stroke="#707070" stroke-width="1">
      <rect width="6" height="15" stroke="none"/>
      <rect x="0.5" y="0.5" width="5" height="14" fill="none"/>
    </g>
    <g id="Rectangle_2116" data-name="Rectangle 2116" transform="translate(-20.213 4)" fill="#fff" stroke="#707070" stroke-width="1">
      <rect width="6" height="15" stroke="none"/>
      <rect x="0.5" y="0.5" width="5" height="14" fill="none"/>
    </g>
    <g id="Rectangle_2036" data-name="Rectangle 2036" transform="translate(-28.213 6.5)" fill="#706e6b" stroke="#706e6b" stroke-width="1">
      <rect width="2" height="2" stroke="none"/>
      <rect x="0.5" y="0.5" width="1" height="1" fill="none"/>
    </g>
    <g id="Rectangle_2035" data-name="Rectangle 2035" transform="translate(-28.213 10.5)" fill="#707070" stroke="#707070" stroke-width="0.5">
      <rect width="2" height="2" stroke="none"/>
      <rect x="0.25" y="0.25" width="1.5" height="1.5" fill="none"/>
    </g>
    <g id="Rectangle_2037" data-name="Rectangle 2037" transform="translate(-23.213 6.5)" fill="#706e6b" stroke="#706e6b" stroke-width="0.5">
      <rect width="2" height="2" stroke="none"/>
      <rect x="0.25" y="0.25" width="1.5" height="1.5" fill="none"/>
    </g>
    <g id="Rectangle_2040" data-name="Rectangle 2040" transform="translate(-23.213 10.5)" fill="#706e6b" stroke="#706e6b" stroke-width="1">
      <rect width="2" height="2" stroke="none"/>
      <rect x="0.5" y="0.5" width="1" height="1" fill="none"/>
    </g>
    <g id="Rectangle_2114" data-name="Rectangle 2114" transform="translate(-23.213 14.5)" fill="#706e6b" stroke="#706e6b" stroke-width="1">
      <rect width="2" height="2" stroke="none"/>
      <rect x="0.5" y="0.5" width="1" height="1" fill="none"/>
    </g>
    <g id="Rectangle_2038" data-name="Rectangle 2038" transform="translate(-18.213 6.5)" fill="#706e6b" stroke="#706e6b" stroke-width="1">
      <rect width="2" height="2" stroke="none"/>
      <rect x="0.5" y="0.5" width="1" height="1" fill="none"/>
    </g>
  </g>
</svg>