<svg xmlns="http://www.w3.org/2000/svg" width="70" height="70" viewBox="0 0 70 70">
  <path id="cog" d="M65.452,41.717A13.1,13.1,0,0,1,70.565,23.5L63.434,11.584A14.039,14.039,0,0,1,56.5,13.4,13.6,13.6,0,0,1,42.7,0H28.442A12.817,12.817,0,0,1,26.6,6.715,14.121,14.121,0,0,1,7.694,11.551L.565,23.466a13.432,13.432,0,0,1,5.093,4.887,13.1,13.1,0,0,1-5.081,18.2L7.708,58.466a14.039,14.039,0,0,1,6.9-1.794A13.6,13.6,0,0,1,28.405,70h14.26A12.837,12.837,0,0,1,44.5,63.353,14.121,14.121,0,0,1,63.382,58.5l7.131-11.915a13.45,13.45,0,0,1-5.061-4.869ZM35.564,49.174A14.44,14.44,0,0,1,20.873,35,14.44,14.44,0,0,1,35.564,20.828,14.44,14.44,0,0,1,50.255,35,14.44,14.44,0,0,1,35.564,49.174Z" transform="translate(-0.565 0.001)" fill="#fff"/>
</svg>
