<svg id="Settings_icon" data-name="Settings icon" xmlns="http://www.w3.org/2000/svg" width="19.5" height="19.446" viewBox="0 0 19.5 19.446">
  <path id="Path_3" data-name="Path 3" d="M0,0H19.5V19.446H0Z" fill="none"/>
  <path id="Path_4" data-name="Path 4" d="M15.747,10.764a5.609,5.609,0,0,0,.048-.746,4.581,4.581,0,0,0-.056-.746l1.612-1.254a.389.389,0,0,0,.1-.484L15.922,4.9a.388.388,0,0,0-.469-.175l-1.9.762a5.611,5.611,0,0,0-1.286-.746l-.286-2.016A.384.384,0,0,0,11.6,2.4H8.553a.376.376,0,0,0-.373.325L7.893,4.741a5.734,5.734,0,0,0-1.286.746l-1.9-.762a.379.379,0,0,0-.469.175L2.724,7.534a.361.361,0,0,0,.1.484L4.431,9.272a4.412,4.412,0,0,0-.016,1.492L2.8,12.017a.389.389,0,0,0-.1.484l1.525,2.634a.388.388,0,0,0,.469.175l1.9-.762a5.611,5.611,0,0,0,1.286.746l.286,2.016a.39.39,0,0,0,.381.325H11.6a.37.37,0,0,0,.373-.325l.286-2.016a5.447,5.447,0,0,0,1.286-.746l1.9.762a.379.379,0,0,0,.469-.175L17.438,12.5a.367.367,0,0,0-.1-.484Zm-5.67,2.111a2.857,2.857,0,1,1,2.859-2.857A2.866,2.866,0,0,1,10.077,12.874Z" transform="translate(-0.327 -0.295)" fill="#706e6b"/>
</svg>