<svg id="pivot_table_chart_black_24dp" xmlns="http://www.w3.org/2000/svg" width="20" height="20" viewBox="0 0 20 20">
  <path id="Path_2810" data-name="Path 2810" d="M0,0H20V20H0Z" fill="none"/>
  <path id="Path_2811" data-name="Path 2811" d="M8.526,6.947h8.684V4.579A1.584,1.584,0,0,0,15.632,3H8.526ZM3,6.947H6.947V3H4.579A1.584,1.584,0,0,0,3,4.579ZM4.579,17.211H6.947V8.526H3v7.105A1.584,1.584,0,0,0,4.579,17.211ZM10.895,18,7.737,14.842l3.158-3.158Zm.789-7.105,3.158-3.158L18,10.895Z" transform="translate(0 0)" fill="#706e6b"/>
  <path id="Path_2812" data-name="Path 2812" d="M14.58,19H13V17h1.58A2.422,2.422,0,0,0,17,14.58V13h2v1.58A4.421,4.421,0,0,1,14.58,19Z" transform="translate(-2.889 -2.889)" fill="#706e6b"/>
</svg>