<svg xmlns="http://www.w3.org/2000/svg" width="14.875" height="17" viewBox="0 0 14.875 17">
  <path id="trash_fontawesome" d="M8.9,13.813h.8a.4.4,0,0,0,.4-.4V6.242a.4.4,0,0,0-.4-.4H8.9a.4.4,0,0,0-.4.4v7.172A.4.4,0,0,0,8.9,13.813ZM14.344,2.656H11.608L10.479.774A1.594,1.594,0,0,0,9.111,0H5.764A1.594,1.594,0,0,0,4.4.774L3.268,2.656H.531A.531.531,0,0,0,0,3.188v.531a.531.531,0,0,0,.531.531h.531V15.406A1.594,1.594,0,0,0,2.656,17h9.563a1.594,1.594,0,0,0,1.594-1.594V4.25h.531a.531.531,0,0,0,.531-.531V3.188A.531.531,0,0,0,14.344,2.656ZM5.706,1.69a.2.2,0,0,1,.171-.1H9a.2.2,0,0,1,.171.1l.58.966H5.126Zm6.513,13.716H2.656V4.25h9.563ZM5.18,13.813h.8a.4.4,0,0,0,.4-.4V6.242a.4.4,0,0,0-.4-.4h-.8a.4.4,0,0,0-.4.4v7.172A.4.4,0,0,0,5.18,13.813Z" transform="translate(0 0)" fill="#706e6b"/>
</svg>