<svg id="account_circle-white-48dp" xmlns="http://www.w3.org/2000/svg" width="30" height="30" viewBox="0 0 30 30">
  <path id="Path_5" data-name="Path 5" d="M0,0H30V30H0Z" fill="none"/>
  <path id="Path_6" data-name="Path 6" d="M15.043,2A13.043,13.043,0,1,0,28.086,15.043,13.048,13.048,0,0,0,15.043,2Zm0,3.913A3.913,3.913,0,1,1,11.13,9.826,3.908,3.908,0,0,1,15.043,5.913Zm0,18.521a9.392,9.392,0,0,1-7.826-4.2c.039-2.6,5.217-4.017,7.826-4.017s7.787,1.422,7.826,4.017A9.392,9.392,0,0,1,15.043,24.434Z" transform="translate(-0.043 -0.043)" fill="#fff"/>
</svg>