<svg xmlns="http://www.w3.org/2000/svg" width="19" height="19" viewBox="0 0 19 19">
  <defs>
    <style>
      .cls-1 {
        fill: none;
      }

      .cls-2, .cls-3 {
        fill: #efd10b;
      }

      .cls-2 {
        opacity: 0.3;
      }
    </style>
  </defs>
  <g id="Pin-2_tone" data-name="Pin-2 tone" transform="translate(-0.334)">
    <g id="Group_71" data-name="Group 71">
      <rect id="Rectangle_2032" data-name="Rectangle 2032" class="cls-1" width="19" height="19" transform="translate(0.334)"/>
    </g>
    <g id="Group_73" data-name="Group 73" transform="translate(4.028 1.611)">
      <g id="Group_72" data-name="Group 72">
        <path id="Path_2413" data-name="Path 2413" class="cls-2" d="M13.028,4H9.806V8.028A3.982,3.982,0,0,1,9,10.445h4.833a4.016,4.016,0,0,1-.806-2.417Z" transform="translate(-5.778 -2.389)"/>
        <path id="Path_2414" data-name="Path 2414" class="cls-3" d="M16.278,10.056a2.414,2.414,0,0,1-2.417-2.417V3.611h.806a.806.806,0,0,0,0-1.611H6.611a.806.806,0,1,0,0,1.611h.806V7.639A2.414,2.414,0,0,1,5,10.056v1.611H9.809v5.639l.806.806.806-.806V11.667h4.858V10.056Zm-8.056,0a3.982,3.982,0,0,0,.806-2.417V3.611H12.25V7.639a4.016,4.016,0,0,0,.806,2.417Z" transform="translate(-5 -2)"/>
      </g>
    </g>
  </g>
</svg>
